<svg width="25" height="22" viewBox="0 0 25 22" fill="none" xmlns="http://www.w3.org/2000/svg">
<g clip-path="url(#clip0_119_354)">
<path d="M14.1881 21.957H10.1767C9.50667 21.957 8.96163 21.4783 8.96163 20.8899V12.9433H6.62132C5.95129 12.9433 5.40625 12.4645 5.40625 11.8762V8.47106C5.40625 7.88258 5.95129 7.40389 6.62132 7.40389H8.96163V5.69873C8.96163 4.00801 9.5661 2.56957 10.7095 1.53915C11.8581 0.504044 13.4632 -0.0429688 15.3513 -0.0429688L18.4106 -0.0386048C19.0795 -0.0375977 19.6235 0.441101 19.6235 1.02856V4.19012C19.6235 4.7786 19.0787 5.25729 18.4089 5.25729L16.3491 5.25797C15.7209 5.25797 15.561 5.36858 15.5268 5.40248C15.4704 5.45871 15.4033 5.61766 15.4033 6.05658V7.40372H18.2541C18.4687 7.40372 18.6766 7.45021 18.8553 7.53783C19.2408 7.72699 19.4804 8.08467 19.4804 8.47122L19.4789 11.8763C19.4789 12.4645 18.9338 12.9432 18.2638 12.9432H15.4033V20.8899C15.4033 21.4783 14.8581 21.957 14.1881 21.957ZM10.4301 20.6673H13.9346V12.3659C13.9346 11.973 14.2987 11.6534 14.7459 11.6534H18.0104L18.0117 8.69362H14.7457C14.2985 8.69362 13.9346 8.37404 13.9346 7.98111V6.05658C13.9346 5.5527 13.9929 4.97968 14.426 4.54898C14.9492 4.02832 15.7739 3.96823 16.3487 3.96823L18.1551 3.96756V1.25079L15.3502 1.24677C12.3158 1.24677 10.4301 2.95276 10.4301 5.69873V7.98111C10.4301 8.37387 10.0662 8.69362 9.61904 8.69362H6.87472V11.6534H9.61904C10.0662 11.6534 10.4301 11.973 10.4301 12.3659V20.6673Z" fill="#FFF4F4"/>
</g>
<defs>
<clipPath id="clip0_119_354">
<rect width="25" height="22" fill="white"/>
</clipPath>
</defs>
</svg>
