<svg width="19" height="19" viewBox="0 0 19 19" fill="none" xmlns="http://www.w3.org/2000/svg">
<path d="M9.68699 18.9443C9.62408 18.9443 9.56117 18.9443 9.49782 18.944C8.00852 18.9476 6.63243 18.9099 5.29417 18.8287C4.06724 18.7542 2.9473 18.3315 2.05522 17.6062C1.19446 16.9064 0.606651 15.9601 0.308182 14.794C0.0484162 13.7788 0.0346451 12.7822 0.0214539 11.8183C0.0118866 11.1267 0.00202942 10.3072 0 9.47386C0.00202942 8.63701 0.0118866 7.8175 0.0214539 7.12591C0.0346451 6.16215 0.0484162 5.16559 0.308182 4.15024C0.606651 2.98414 1.19446 2.03788 2.05522 1.33804C2.9473 0.612771 4.06724 0.190009 5.29432 0.115574C6.63257 0.0344905 8.00896 -0.00337743 9.50145 0.000235921C10.9912 -0.00294383 12.3668 0.0344905 13.7051 0.115574C14.932 0.190009 16.052 0.612771 16.944 1.33804C17.805 2.03788 18.3926 2.98414 18.6911 4.15024C18.9509 5.16545 18.9646 6.16215 18.9778 7.12591C18.9874 7.8175 18.9974 8.63701 18.9993 9.47039V9.47386C18.9974 10.3072 18.9874 11.1267 18.9778 11.8183C18.9646 12.7821 18.951 13.7787 18.6911 14.794C18.3926 15.9601 17.805 16.9064 16.944 17.6062C16.052 18.3315 14.932 18.7542 13.7051 18.8287C12.4235 18.9064 11.107 18.9443 9.68699 18.9443ZM9.49782 17.464C10.9629 17.4675 12.3081 17.4306 13.6149 17.3514C14.5427 17.2952 15.347 16.995 16.006 16.4592C16.6151 15.9639 17.0346 15.2805 17.2528 14.4281C17.4691 13.583 17.4816 12.6756 17.4936 11.7981C17.503 11.1111 17.5129 10.2974 17.5149 9.47213C17.5129 8.64669 17.503 7.83311 17.4936 7.14614C17.4816 6.26867 17.4691 5.36129 17.2528 4.51606C17.0346 3.66359 16.6151 2.98024 16.006 2.48492C15.347 1.94928 14.5427 1.64908 13.6149 1.59286C12.3081 1.51351 10.9629 1.47694 9.5013 1.48012C8.0365 1.47665 6.69114 1.51351 5.38434 1.59286C4.4566 1.64908 3.65223 1.94928 2.99325 2.48492C2.38413 2.98024 1.96462 3.66359 1.74646 4.51606C1.53018 5.36129 1.51772 6.26853 1.50568 7.14614C1.49626 7.83369 1.4864 8.64785 1.48437 9.47386C1.4864 10.2963 1.49626 11.1106 1.50568 11.7981C1.51772 12.6756 1.53018 13.583 1.74646 14.4281C1.96462 15.2805 2.38413 15.9639 2.99325 16.4592C3.65223 16.9948 4.4566 17.295 5.38434 17.3512C6.69114 17.4306 8.03679 17.4676 9.49782 17.464ZM9.46245 14.0972C6.90481 14.0972 4.82378 12.0224 4.82378 9.47213C4.82378 6.92182 6.90481 4.84704 9.46245 4.84704C12.0202 4.84704 14.1011 6.92182 14.1011 9.47213C14.1011 12.0224 12.0202 14.0972 9.46245 14.0972ZM9.46245 6.32707C7.72324 6.32707 6.30816 7.73801 6.30816 9.47213C6.30816 11.2062 7.72324 12.6172 9.46245 12.6172C11.2018 12.6172 12.6167 11.2062 12.6167 9.47213C12.6167 7.73801 11.2018 6.32707 9.46245 6.32707ZM14.6207 3.36701C14.0059 3.36701 13.5074 3.86392 13.5074 4.47703C13.5074 5.09014 14.0059 5.58705 14.6207 5.58705C15.2356 5.58705 15.7339 5.09014 15.7339 4.47703C15.7339 3.86392 15.2356 3.36701 14.6207 3.36701Z" fill="white"/>
</svg>
