<svg width="18" height="18" viewBox="0 0 18 18" fill="none" xmlns="http://www.w3.org/2000/svg">
<path d="M0.274414 17.8027H4.93511V5.58264H0.274414V17.8027ZM1.3291 6.63424H3.88043V16.751H1.3291V6.63424Z" fill="#FFFEFE"/>
<path d="M2.60504 0C1.16859 0 0 1.16521 0 2.59741C0 4.02962 1.16859 5.19486 2.60504 5.19486C4.04149 5.19486 5.21012 4.02966 5.21012 2.59741C5.21012 1.16517 4.04146 0 2.60504 0ZM1.05469 2.59741C1.05469 1.74506 1.75015 1.0516 2.60504 1.0516C3.45994 1.0516 4.15543 1.74502 4.15543 2.59741C4.15543 3.44981 3.45994 4.14326 2.60504 4.14326C1.75015 4.14326 1.05469 3.44977 1.05469 2.59741Z" fill="#FFFEFE"/>
<path d="M17.9889 9.41994C17.8231 7.0414 15.8332 5.2085 13.3663 5.2085C12.2628 5.2085 11.2212 5.591 10.4005 6.2697V5.58266H5.93457V17.8027H10.5953V11.1193C10.5953 10.3661 11.2099 9.75326 11.9653 9.75326C12.7207 9.75326 13.3353 10.3661 13.3353 11.1196L13.3398 17.8027H18.0002V9.43123L17.9889 9.41994ZM9.54062 16.7512H6.98926V6.63429H9.34575V8.13622L10.1897 8.14106L10.3465 7.89835C11.0092 6.87251 12.1381 6.26013 13.3663 6.26013C15.3293 6.26013 16.901 7.75347 16.9445 9.65977L16.9455 16.7512H14.3938L14.39 11.1193C14.39 9.78621 13.3023 8.70166 11.9653 8.70166C10.6284 8.70166 9.54062 9.78621 9.54062 11.1193V16.7512Z" fill="#FFFEFE"/>
</svg>
