<?xml version="1.0" encoding="UTF-8"?>
<svg id="Layer_1" data-name="Layer 1" xmlns="http://www.w3.org/2000/svg" viewBox="0 0 712.75 174.36">
  <defs>
    <style>
      .cls-1 {
        font-family: Poppins-Bold, Poppins;
        font-size: 52.83px;
        font-weight: 700;
        letter-spacing: 0em;
      }

      .cls-1, .cls-2, .cls-3, .cls-4 {
        fill: #fff;
      }

      .cls-2 {
        stroke-width: 0px;
      }

      .cls-3 {
        font-size: 11.74px;
      }

      .cls-3, .cls-4 {
        font-family: Poppins-Medium, Poppins;
        font-weight: 500;
      }

      .cls-4 {
        font-size: 19.96px;
        letter-spacing: .35em;
      }
    </style>
  </defs>
  <g>
    <polygon class="cls-2" points="168.48 56.78 84.86 0 26.59 39.33 96.56 86.55 104.8 80.99 43.07 39.33 84.86 11.13 156.87 59.73 84.86 108.32 0 51.06 0 141.98 54.33 174.36 53.67 98.39 84.86 119.44 115.4 98.84 115.4 174.36 168.49 141.98 168.49 60.56 168.48 56.78"/>
    <polygon class="cls-2" points="64.82 38.17 116.55 73.08 134.97 60.65 83.23 25.74 64.82 38.17"/>
  </g>
  <text class="cls-1" transform="translate(205.74 98.69)"><tspan x="0" y="0">Mezzanine Equity</tspan></text>
  <text class="cls-4" transform="translate(317.34 140.93)"><tspan x="0" y="0">PRIVATE LIMITED</tspan></text>
  <text class="cls-3" transform="translate(695.77 64.59)"><tspan x="0" y="0">TM</tspan></text>
</svg>